<?xml version="1.0" standalone="no"?>
<svg xmlns="http://www.w3.org/2000/svg" viewBox="0 0 1440 320">

  <path fill="#2563eb" fill-opacity="1" d="M0,64L26.7,106.7C53.3,149,107,235,160,250.7C213.3,267,267,213,320,202.7C373.3,192,427,224,480,224C533.3,224,587,192,640,176C693.3,160,747,160,800,165.3C853.3,171,907,181,960,160C1013.3,139,1067,85,1120,80C1173.3,75,1227,117,1280,117.3C1333.3,117,1387,75,1413,53.3L1440,32L1440,0L1413.3,0C1386.7,0,1333,0,1280,0C1226.7,0,1173,0,1120,0C1066.7,0,1013,0,960,0C906.7,0,853,0,800,0C746.7,0,693,0,640,0C586.7,0,533,0,480,0C426.7,0,373,0,320,0C266.7,0,213,0,160,0C106.7,0,53,0,27,0L0,0Z">
  </path>
  
</svg>